<?xml version="1.0" standalone="no"?>
<!DOCTYPE svg PUBLIC "-//W3C//DTD SVG 20010904//EN"
 "http://www.w3.org/TR/2001/REC-SVG-20010904/DTD/svg10.dtd">
<svg version="1.0" xmlns="http://www.w3.org/2000/svg"
 width="500.000000pt" height="500.000000pt" viewBox="0 0 500.000000 500.000000"
 preserveAspectRatio="xMidYMid meet">
<metadata>
Created by potrace 1.14, written by Peter Selinger 2001-2017
</metadata>
<g transform="translate(0.000000,500.000000) scale(0.100000,-0.100000)"
fill="#000000" stroke="none">
<path d="M0 2500 l0 -2500 2500 0 2500 0 0 2500 0 2500 -2500 0 -2500 0 0
-2500z m2918 1185 l82 -18 0 -100 0 -99 -32 6 c-475 88 -896 7 -1271 -244 -99
-66 -109 -70 -161 -70 l-56 0 0 -46 c0 -44 -4 -52 -73 -128 -241 -266 -382
-553 -447 -911 l-20 -110 4 180 c3 136 9 202 25 270 99 424 332 765 693 1012
204 140 459 240 695 272 110 15 464 6 561 -14z m-138 -750 l0 -245 210 0 210
0 0 240 0 241 158 -3 157 -3 3 -597 2 -598 -160 0 -160 0 0 235 0 235 -210 0
-210 0 0 -235 0 -235 -160 0 -160 0 2 598 3 597 150 5 c83 3 153 7 158 8 4 1
7 -108 7 -243z m-390 -1105 c0 -38 1 -39 25 -30 30 11 70 -1 79 -25 3 -9 6
-43 6 -76 0 -59 0 -59 -30 -59 -30 0 -30 1 -30 54 0 57 -7 70 -34 60 -12 -5
-16 -20 -16 -60 0 -53 0 -54 -30 -54 l-30 0 0 115 0 115 30 0 c28 0 30 -2 30
-40z m-1080 10 c0 -17 -7 -20 -45 -20 -41 0 -45 -2 -45 -25 0 -22 4 -25 34
-25 25 0 35 -5 39 -19 6 -26 0 -31 -40 -31 -32 0 -33 -1 -33 -40 0 -38 -2 -40
-30 -40 l-30 0 0 110 0 110 75 0 c68 0 75 -2 75 -20z m123 -41 c33 -18 37 -28
37 -94 l0 -61 -57 -1 c-66 -2 -83 8 -83 48 0 30 23 49 60 49 12 0 18 5 15 10
-3 6 -17 7 -30 4 -17 -4 -26 0 -35 15 -11 22 -9 24 35 34 33 8 36 7 58 -4z
m470 -21 c12 -14 17 -37 17 -78 l0 -57 -59 -1 c-67 -1 -84 11 -79 55 2 22 10
30 36 39 36 11 33 27 -4 18 -18 -5 -24 -2 -24 10 0 9 -1 19 -2 23 -4 10 52 22
77 16 11 -3 28 -14 38 -25z m205 9 c7 -6 12 -35 12 -78 l0 -69 -30 0 c-30 0
-30 1 -30 54 0 57 -7 70 -34 60 -12 -5 -16 -20 -16 -60 0 -53 0 -54 -30 -54
l-30 0 0 81 0 82 29 -6 c15 -3 41 -2 57 2 30 8 50 5 72 -12z m175 -4 c10 -9
17 -30 17 -50 0 -33 0 -33 -47 -33 -25 0 -43 -3 -39 -7 4 -5 24 -8 44 -8 30 0
37 -4 37 -20 0 -17 -8 -20 -52 -23 -45 -3 -56 1 -78 22 -76 76 38 191 118 119z
m-738 7 c4 -7 13 -7 26 0 11 6 24 8 29 5 19 -12 10 -42 -15 -53 -21 -10 -25
-18 -25 -57 0 -43 -1 -45 -30 -45 l-30 0 0 80 c0 73 2 80 19 80 11 0 23 -5 26
-10z m215 -7 c-1 -10 -14 -34 -31 -53 l-30 -35 31 -3 c24 -3 30 -8 30 -28 0
-23 -3 -24 -65 -24 -81 0 -90 14 -46 67 l32 38 -26 3 c-19 3 -25 9 -25 28 0
23 3 24 65 24 55 0 65 -3 65 -17z"/>
<path d="M1380 1690 c0 -5 4 -10 9 -10 6 0 13 5 16 10 3 6 -1 10 -9 10 -9 0
-16 -4 -16 -10z"/>
<path d="M1830 1690 c0 -5 4 -10 9 -10 6 0 13 5 16 10 3 6 -1 10 -9 10 -9 0
-16 -4 -16 -10z"/>
<path d="M2215 1750 c-3 -5 1 -10 10 -10 9 0 13 5 10 10 -3 6 -8 10 -10 10 -2
0 -7 -4 -10 -10z"/>
</g>
</svg>
